# xmcd
#
# Track frame offsets:
#	150
#	16410
#	30443
#	46485
#	60551
#	79007
#	95861
#	109471
#	124470
#	141226
#	155491
#	175971
#	193251
#	208267
#	222837
#	251196
#
# Disc length: 3364 seconds
#
# Revision: 1
# Processed by: cddbd v1.5.2PL0 Copyright (c) Steve Scherf et al.
# Submitted via: audiograbber 1.83.01
#
DISCID=f70d2210
DTITLE=Aaron Tippin - CB90248
DYEAR=1900
DGENRE=Karaoke
TTITLE0=Workin' Man's Ph. D.
TTITLE1=Kiss This
TTITLE2=My Blue Angel
TTITLE3=You've Got To Stand For Something
TTITLE4=Where The Stars and Stripes and The Eagle Fly
TTITLE5=For You I Will
TTITLE6=Ain't Nothin' Wrong With The Radio
TTITLE7=What This Country Needs
TTITLE8=People Like Us
TTITLE9=If Her Lovin' Don't Kill Me
TTITLE10=Call Of The Wild
TTITLE11=Love Like There's No Tomorrow
TTITLE12=Everything I Know
TTITLE13=Close As I'll Get To Loving You
TTITLE14=Whole Lotta Love On The Line
TTITLE15=Data
EXTD=
EXTT0=
EXTT1=
EXTT2=
EXTT3=
EXTT4=
EXTT5=
EXTT6=
EXTT7=
EXTT8=
EXTT9=
EXTT10=
EXTT11=
EXTT12=
EXTT13=
EXTT14=
EXTT15=
PLAYORDER=
